<?xml version="1.0" standalone="no"?>
<!DOCTYPE svg PUBLIC "-//W3C//DTD SVG 20010904//EN"
 "http://www.w3.org/TR/2001/REC-SVG-20010904/DTD/svg10.dtd">
<svg version="1.0" xmlns="http://www.w3.org/2000/svg"
 width="642.000000pt" height="642.000000pt" viewBox="0 0 642.000000 642.000000"
 preserveAspectRatio="xMidYMid meet">
<metadata>
Created by potrace 1.11, written by Peter Selinger 2001-2013
</metadata>
<g transform="translate(0.000000,642.000000) scale(0.100000,-0.100000)"
fill="#000000" stroke="none">
<path d="M2985 6409 c-174 -14 -361 -49 -535 -99 -211 -62 -297 -94 -485 -186
-300 -146 -532 -312 -785 -564 -279 -277 -451 -515 -621 -860 -404 -817 -457
-1791 -145 -2653 122 -335 303 -660 522 -937 104 -131 393 -413 529 -516 405
-307 870 -504 1350 -574 200 -29 600 -29 800 0 480 70 945 267 1350 574 136
103 425 385 529 516 386 488 625 1069 701 1705 24 199 17 702 -13 890 -96 610
-310 1103 -691 1597 -100 129 -399 420 -536 522 -472 349 -974 542 -1529 586
-145 11 -293 11 -441 -1z"/>
</g>
</svg>
